# xmcd
#
# Track frame offsets:
#	150
#	12657
#	28289
#	41915
#	52227
#	63921
#	75228
#	87740
#	101459
#	113078
#	126454
#	140546
#	150746
#	167259
#	181727
#	192526
#	204205
#	217016
#	229312
#	241669
#	252300
#	264386
#
# Disc length: 3699 seconds
#
# Revision: 0
# Processed by: cddbd v1.5.2PL0 Copyright (c) Steve Scherf et al.
# Submitted via: EasyCDDAExtractor 16.0.6.1
#
DISCID=390e7116
DTITLE=Various Artist - Country Sunset [Disc 01]
DYEAR=1900
DGENRE=Country
TTITLE0=Bill Anderson - Po Folks
TTITLE1=T. Graham Brown - The Last Resort
TTITLE2=Lynn Anderson - Talking in Your Sleep
TTITLE3=Faron Young - Hello Walls
TTITLE4=Merle Haggard - From Graceland to the Promised Land
TTITLE5=Carl Smith - Hey Joe
TTITLE6=The Blue Sky Boys - Garden in the Sky
TTITLE7=Bill Walker - Cross the Brazos at Waco
TTITLE8=Henson Cargill - Skip a Rope
TTITLE9=The Kendalls - Pittsburgh Stealers
TTITLE10=Jack Greene - You Are My Treasure
TTITLE11=Jim Ed Brown - Pop a Top
TTITLE12=Lee Greenwood - Somebody's Going to Love You
TTITLE13=Eddy Raven - I Wanna Hear it From You
TTITLE14=George Jones - Tender Years
TTITLE15=Dolly Parton - Letter to Heaven
TTITLE16=Alabama - Loving You is Killing Me
TTITLE17=Ed Bruce - Nights
TTITLE18=Don Williams - Some Broken Hearts Never Mend
TTITLE19=Bellamy Brothers - Let Your Love Flow
TTITLE20=Johnny Cash - Home of the Blues
TTITLE21=Billie Jo Spears - It Could A' Been Me
EXTD=
EXTT0=
EXTT1=
EXTT2=
EXTT3=
EXTT4=
EXTT5=
EXTT6=
EXTT7=
EXTT8=
EXTT9=
EXTT10=
EXTT11=
EXTT12=
EXTT13=
EXTT14=
EXTT15=
EXTT16=
EXTT17=
EXTT18=
EXTT19=
EXTT20=
EXTT21=
PLAYORDER=
